<svg id="Camada_1" data-name="Camada 1" xmlns="http://www.w3.org/2000/svg" viewBox="0 0 377.95 330.78"><defs><style>.cls-1,.cls-2,.cls-3,.cls-4{fill:none;stroke:#94008a;stroke-miterlimit:10;}.cls-1{stroke-width:7px;}.cls-2{stroke-width:6px;}.cls-3{stroke-width:4px;}.cls-4{stroke-width:3px;}</style></defs><polyline class="cls-1" points="107.5 119.28 107.5 293.28 272.5 293.28 272.5 119.28 272.5 114.28 190 54.28 90.5 135.28 69.5 114.28 189.5 27.28 308.5 114.28 293.5 130.28 272.5 114.28"/><polygon class="cls-1" points="22.5 242.28 107.5 176.28 107.5 148.28 7.5 224.28 22.5 242.28"/><polygon class="cls-1" points="357.92 242.28 272.92 176.28 272.92 148.28 372.92 224.28 357.92 242.28"/><polyline class="cls-1" points="32.13 234.81 32.13 293.28 347.5 293.28 347.5 234.97"/><polyline class="cls-1" points="32.13 293.28 3.5 293.28 3.5 327.28 371.92 327.28 371.92 293.28 347.5 293.28"/><path class="cls-2" d="M284,408V357a34.8,34.8,0,0,0-7-15c-9.36-11.52-23.16-12.8-26-13" transform="translate(-60.5 -114.72)"/><path class="cls-2" d="M218.68,408.49v-51a34.73,34.73,0,0,1,7-15c9.35-11.52,23.16-12.79,26-13" transform="translate(-60.5 -114.72)"/><path class="cls-3" d="M387.34,404.86V388.25a10.3,10.3,0,0,0-4.35-4.88c-5.81-3.76-14.38-4.17-16.15-4.24" transform="translate(-60.5 -114.72)"/><path class="cls-3" d="M351.05,404.62V388a10.32,10.32,0,0,1,4.34-4.88c5.82-3.76,14.39-4.17,16.16-4.24" transform="translate(-60.5 -114.72)"/><path class="cls-3" d="M148.55,404.62V388a10.42,10.42,0,0,0-4.35-4.88c-5.81-3.76-14.39-4.17-16.15-4.24" transform="translate(-60.5 -114.72)"/><path class="cls-3" d="M112.45,404.62V388a10.42,10.42,0,0,1,4.35-4.88c5.81-3.76,14.39-4.17,16.15-4.24" transform="translate(-60.5 -114.72)"/><polygon class="cls-3" points="180.07 136.23 165.3 136.23 165.3 120.88 180.07 120.88 180.07 104.84 198.08 104.84 198.08 120.53 214.12 120.53 214.12 136.23 197.38 136.23 197.38 162.73 180.07 162.73 180.07 136.23"/><path class="cls-4" d="M341.33,145.7l4.35,3.94L349.9,147l4.21,2.67v3.09h6.18v-3.09l5.61-2.53,4,2.53,2.21-3.37-2.21-3.65,2.21-4.22,3.94-1.68v-3.93c-4.19-2.52-4-2.4-6.15-6.74l2.21-3.09-3.93-3.09-3.65,2-4.49-2v-3.65H355l-1.12,3.37-4.21,1.4-3.94-1.4-2.8,2.8,1.12,3.94-2.67,5-4.19.28V137l4.19.84,2.11,4.78Z" transform="translate(-60.5 -114.72)"/><path class="cls-4" d="M351,129.64a7.39,7.39,0,1,1-.36,9.72A7.69,7.69,0,0,1,351,129.64Z" transform="translate(-60.5 -114.72)"/><path class="cls-3" d="M338.18,206l-12.11-9.1-9.65-7.25-27.56-20.7,3-4-2.27-8.05,9.95-4.82,4.08,5.49,11.56-1.75,2.9-6.58,10.45,3.19-.57,7.21,8.94,6.72,7.24-2.2,4.7,8.37L343,177.12l1.95,11.53,6.91,2.95-3.13,10.13-7.06-.27Z" transform="translate(-60.5 -114.72)"/><path class="cls-3" d="M301.34,178.67a16.44,16.44,0,0,1,9.45-5.38c1-.18,8.1-1.28,13.44,3.94a15.65,15.65,0,0,1,4.49,11.39,16,16,0,0,1-2.39,7.89" transform="translate(-60.5 -114.72)"/></svg>